<?xml version="1.0" encoding="UTF-8"?>
<svg xmlns="http://www.w3.org/2000/svg" xmlns:xlink="http://www.w3.org/1999/xlink" width="50pt" height="39pt" viewBox="0 0 50 39" version="1.1">
<defs>
<filter id="alpha" filterUnits="objectBoundingBox" x="0%" y="0%" width="100%" height="100%">
  <feColorMatrix type="matrix" in="SourceGraphic" values="0 0 0 0 1 0 0 0 0 1 0 0 0 0 1 0 0 0 1 0"/>
</filter>
<mask id="mask0">
  <g filter="url(#alpha)">
<rect x="0" y="0" width="50" height="39" style="fill:rgb(0%,0%,0%);fill-opacity:0.101961;stroke:none;"/>
  </g>
</mask>
<clipPath id="clip1">
  <rect x="0" y="0" width="50" height="39"/>
</clipPath>
<g id="surface5" clip-path="url(#clip1)">
<path style=" stroke:none;fill-rule:nonzero;fill:rgb(0%,0%,0%);fill-opacity:1;" d="M 11.796875 23.164062 L 7.359375 22.980469 C 7.414062 23.25 7.425781 23.523438 7.394531 23.796875 C 7.597656 24.277344 8.03125 24.144531 8.03125 24.144531 L 11.914062 24.023438 Z M 11.796875 23.164062 "/>
</g>
<mask id="mask1">
  <g filter="url(#alpha)">
<rect x="0" y="0" width="50" height="39" style="fill:rgb(0%,0%,0%);fill-opacity:0.101961;stroke:none;"/>
  </g>
</mask>
<clipPath id="clip2">
  <rect x="0" y="0" width="50" height="39"/>
</clipPath>
<g id="surface8" clip-path="url(#clip2)">
<path style=" stroke:none;fill-rule:nonzero;fill:rgb(0%,0%,0%);fill-opacity:1;" d="M 8.289062 24.507812 C 8.289062 24.507812 8.050781 25.714844 9.414062 27.714844 "/>
</g>
<mask id="mask2">
  <g filter="url(#alpha)">
<rect x="0" y="0" width="50" height="39" style="fill:rgb(0%,0%,0%);fill-opacity:0.101961;stroke:none;"/>
  </g>
</mask>
<clipPath id="clip3">
  <rect x="0" y="0" width="50" height="39"/>
</clipPath>
<g id="surface11" clip-path="url(#clip3)">
<path style=" stroke:none;fill-rule:nonzero;fill:rgb(0%,0%,0%);fill-opacity:1;" d="M 12.238281 17.992188 C 12.238281 17.992188 13.875 17.441406 14.589844 17.441406 C 15.304688 17.441406 15.1875 17.753906 15.1875 17.753906 C 15.1875 17.753906 14.046875 18.265625 12.238281 17.992188 Z M 12.238281 17.992188 "/>
</g>
<mask id="mask3">
  <g filter="url(#alpha)">
<rect x="0" y="0" width="50" height="39" style="fill:rgb(0%,0%,0%);fill-opacity:0.101961;stroke:none;"/>
  </g>
</mask>
<clipPath id="clip4">
  <rect x="0" y="0" width="50" height="39"/>
</clipPath>
<g id="surface14" clip-path="url(#clip4)">
<path style=" stroke:none;fill-rule:nonzero;fill:rgb(0%,0%,0%);fill-opacity:1;" d="M 10.386719 13.917969 L 9.734375 13.996094 C 9.714844 13.996094 9.695312 14.027344 9.683594 14.066406 C 9.828125 14.328125 10.007812 14.484375 10.203125 14.484375 C 10.269531 14.480469 10.339844 14.460938 10.398438 14.425781 L 10.449219 14.121094 C 10.464844 14.019531 10.433594 13.914062 10.386719 13.917969 Z M 10.386719 13.917969 "/>
</g>
<mask id="mask4">
  <g filter="url(#alpha)">
<rect x="0" y="0" width="50" height="39" style="fill:rgb(0%,0%,0%);fill-opacity:0.101961;stroke:none;"/>
  </g>
</mask>
<clipPath id="clip5">
  <rect x="0" y="0" width="50" height="39"/>
</clipPath>
<g id="surface17" clip-path="url(#clip5)">
<path style=" stroke:none;fill-rule:nonzero;fill:rgb(0%,0%,0%);fill-opacity:1;" d="M 11.621094 11.265625 L 11.519531 11.355469 C 11.433594 11.4375 11.394531 11.558594 11.414062 11.675781 C 11.433594 11.789062 11.511719 11.890625 11.621094 11.933594 C 11.621094 11.933594 10.730469 12.835938 10.605469 13.003906 C 10.484375 13.171875 10.628906 13.609375 10.628906 13.609375 C 10.628906 13.609375 11.019531 14.34375 8.949219 14.175781 C 8.949219 14.175781 7.585938 13.882812 7.730469 12.019531 C 7.742188 11.832031 7.441406 11.347656 8.351562 11.097656 C 8.40625 10.558594 8.792969 10.117188 9.308594 9.996094 C 9.664062 9.90625 10.027344 9.875 10.386719 9.898438 C 11.085938 9.960938 11.625 10.554688 11.621094 11.265625 Z M 11.621094 11.265625 "/>
</g>
</defs>
<g id="surface1">
<path style=" stroke:none;fill-rule:nonzero;fill:rgb(90.196078%,90.196078%,90.196078%);fill-opacity:1;" d="M 43.363281 31.792969 C 43.246094 30.839844 43.621094 29.855469 43.398438 28.917969 C 43.226562 28.195312 42.714844 27.589844 42.542969 26.867188 C 42.296875 25.792969 42.863281 24.6875 43.585938 23.863281 C 44.082031 23.296875 44.703125 22.78125 45.445312 22.675781 C 45.902344 22.613281 46.375 22.714844 46.796875 22.902344 C 47.667969 23.296875 48.335938 24.039062 48.640625 24.953125 C 48.738281 25.246094 48.796875 25.554688 48.917969 25.839844 C 49.125 26.328125 49.503906 26.722656 49.738281 27.199219 C 50.058594 27.855469 50.089844 28.613281 49.824219 29.292969 C 49.550781 29.984375 48.976562 30.558594 48.894531 31.300781 C 48.832031 31.832031 49.027344 32.414062 48.773438 32.882812 C 48.578125 33.238281 48.179688 33.417969 47.804688 33.550781 C 46.925781 33.859375 45.699219 34.363281 44.816406 33.882812 C 44.046875 33.46875 43.476562 32.675781 43.363281 31.792969 Z M 43.363281 31.792969 "/>
<path style="fill:none;stroke-width:3;stroke-linecap:butt;stroke-linejoin:miter;stroke:rgb(81.568627%,80.392157%,88.235294%);stroke-opacity:1;stroke-miterlimit:10;" d="M 930.98475 419.872583 C 930.98475 419.872583 948.506313 412.791253 950.705375 408.864971 C 952.904437 404.868577 955.95475 381.521221 955.95475 381.521221 " transform="matrix(0.0550661,0,0,0.0557143,-5.437555,8.802411)"/>
<path style="fill:none;stroke-width:3;stroke-linecap:butt;stroke-linejoin:miter;stroke:rgb(81.568627%,80.392157%,88.235294%);stroke-opacity:1;stroke-miterlimit:10;" d="M -0.0030625 170.415064 L 0.564438 -0.0276442 " transform="matrix(0.0550661,0,0,0.0557143,45.816575,29.333571)"/>
<path style=" stroke:none;fill-rule:nonzero;fill:rgb(97.647059%,65.882353%,14.901961%);fill-opacity:1;" d="M 38.558594 28.664062 C 38.417969 27.558594 38.855469 26.414062 38.59375 25.328125 C 38.394531 24.488281 37.800781 23.789062 37.605469 22.949219 C 37.320312 21.703125 37.976562 20.425781 38.8125 19.46875 C 39.386719 18.808594 40.109375 18.210938 40.96875 18.089844 C 41.503906 18.015625 42.046875 18.132812 42.539062 18.351562 C 43.546875 18.808594 44.324219 19.671875 44.679688 20.730469 C 44.792969 21.070312 44.859375 21.425781 44.996094 21.757812 C 45.238281 22.324219 45.679688 22.785156 45.953125 23.335938 C 46.320312 24.097656 46.359375 24.976562 46.050781 25.761719 C 45.734375 26.5625 45.070312 27.234375 44.96875 28.089844 C 44.898438 28.710938 45.128906 29.386719 44.832031 29.929688 C 44.605469 30.339844 44.144531 30.546875 43.707031 30.703125 C 42.6875 31.0625 41.265625 31.644531 40.242188 31.089844 C 39.351562 30.605469 38.6875 29.691406 38.558594 28.664062 Z M 38.558594 28.664062 "/>
<path style="fill:none;stroke-width:3;stroke-linecap:butt;stroke-linejoin:miter;stroke:rgb(20%,20%,20%);stroke-opacity:1;stroke-miterlimit:10;" d="M 0.0305625 236.892064 L 0.0305625 -0.0169904 " transform="matrix(0.0550661,0,0,0.0557143,41.400661,25.629853)"/>
<path style="fill:none;stroke-width:3;stroke-linecap:butt;stroke-linejoin:miter;stroke:rgb(20%,20%,20%);stroke-opacity:1;stroke-miterlimit:10;" d="M 930.982375 441.240833 C 930.982375 441.240833 958.222375 430.303333 961.698312 424.133462 C 965.103312 417.893478 969.927062 381.505256 969.927062 381.505256 " transform="matrix(0.0550661,0,0,0.0557143,-9.851487,4.869707)"/>
<path style=" stroke:none;fill-rule:nonzero;fill:rgb(18.431373%,18.039216%,25.490196%);fill-opacity:1;" d="M 16.632812 0.0507812 L 35.136719 0.00390625 C 35.898438 0 36.515625 0.625 36.515625 1.394531 L 36.605469 37.425781 C 36.605469 38.195312 35.992188 38.820312 35.230469 38.824219 L 16.726562 38.867188 C 15.96875 38.871094 15.347656 38.25 15.347656 37.480469 L 15.261719 1.445312 C 15.257812 0.675781 15.875 0.0507812 16.632812 0.0507812 Z M 16.632812 0.0507812 "/>
<path style=" stroke:none;fill-rule:nonzero;fill:rgb(100%,100%,100%);fill-opacity:1;" d="M 35.851562 36.640625 C 35.851562 37.082031 35.5 37.4375 35.0625 37.441406 L 16.902344 37.484375 C 16.464844 37.484375 16.109375 37.128906 16.109375 36.6875 L 16.097656 31.289062 L 16.027344 2.171875 C 16.027344 1.730469 16.378906 1.375 16.816406 1.371094 L 20.613281 1.363281 C 20.738281 2.195312 21.445312 2.808594 22.277344 2.8125 L 29.453125 2.792969 C 30.285156 2.789062 30.992188 2.171875 31.113281 1.335938 L 34.972656 1.328125 C 35.410156 1.328125 35.761719 1.683594 35.761719 2.125 L 35.835938 31.289062 Z M 35.851562 36.640625 "/>
<path style=" stroke:none;fill-rule:nonzero;fill:rgb(90.196078%,90.196078%,90.196078%);fill-opacity:1;" d="M 35.851562 37.007812 C 35.855469 37.453125 35.503906 37.820312 35.0625 37.824219 L 16.835938 37.871094 C 16.390625 37.867188 16.039062 37.503906 16.039062 37.054688 L 16.027344 31.542969 L 35.835938 31.542969 Z M 35.851562 37.007812 "/>
<path style=" stroke:none;fill-rule:nonzero;fill:rgb(100%,100%,100%);fill-opacity:1;" d="M 23.453125 1.476562 L 27.96875 1.40625 C 28.027344 1.40625 28.078125 1.457031 28.078125 1.515625 L 28.082031 1.59375 C 28.082031 1.65625 28.03125 1.707031 27.972656 1.707031 L 23.457031 1.777344 C 23.394531 1.777344 23.34375 1.726562 23.34375 1.667969 L 23.34375 1.589844 C 23.34375 1.527344 23.390625 1.476562 23.453125 1.476562 Z M 23.453125 1.476562 "/>
<path style=" stroke:none;fill-rule:nonzero;fill:rgb(100%,100%,100%);fill-opacity:1;" d="M 29.261719 1.507812 C 29.265625 1.605469 29.1875 1.6875 29.085938 1.691406 C 28.988281 1.691406 28.910156 1.613281 28.90625 1.511719 C 28.90625 1.414062 28.984375 1.332031 29.082031 1.328125 C 29.179688 1.328125 29.261719 1.40625 29.261719 1.507812 Z M 29.261719 1.507812 "/>
<path style=" stroke:none;fill-rule:nonzero;fill:rgb(90.196078%,90.196078%,90.196078%);fill-opacity:1;" d="M 17.707031 6.347656 L 20.292969 6.347656 C 20.613281 6.347656 20.871094 6.609375 20.871094 6.933594 L 20.871094 9.550781 C 20.871094 9.871094 20.613281 10.132812 20.292969 10.132812 L 17.707031 10.132812 C 17.386719 10.132812 17.128906 9.871094 17.128906 9.550781 L 17.128906 6.933594 C 17.128906 6.609375 17.386719 6.347656 17.707031 6.347656 Z M 17.707031 6.347656 "/>
<path style=" stroke:none;fill-rule:nonzero;fill:rgb(90.196078%,90.196078%,90.196078%);fill-opacity:1;" d="M 22.324219 6.347656 L 24.910156 6.347656 C 25.230469 6.347656 25.488281 6.609375 25.488281 6.933594 L 25.488281 9.550781 C 25.488281 9.871094 25.230469 10.132812 24.910156 10.132812 L 22.324219 10.132812 C 22.007812 10.132812 21.746094 9.871094 21.746094 9.550781 L 21.746094 6.933594 C 21.746094 6.609375 22.007812 6.347656 22.324219 6.347656 Z M 22.324219 6.347656 "/>
<path style=" stroke:none;fill-rule:nonzero;fill:rgb(90.196078%,90.196078%,90.196078%);fill-opacity:1;" d="M 26.945312 6.347656 L 29.527344 6.347656 C 29.847656 6.347656 30.105469 6.609375 30.105469 6.933594 L 30.105469 9.550781 C 30.105469 9.871094 29.847656 10.132812 29.527344 10.132812 L 26.945312 10.132812 C 26.625 10.132812 26.367188 9.871094 26.367188 9.550781 L 26.367188 6.933594 C 26.367188 6.609375 26.625 6.347656 26.945312 6.347656 Z M 26.945312 6.347656 "/>
<path style=" stroke:none;fill-rule:nonzero;fill:rgb(90.196078%,90.196078%,90.196078%);fill-opacity:1;" d="M 31.5625 6.347656 L 34.144531 6.347656 C 34.464844 6.347656 34.726562 6.609375 34.726562 6.933594 L 34.726562 9.550781 C 34.726562 9.871094 34.464844 10.132812 34.144531 10.132812 L 31.5625 10.132812 C 31.242188 10.132812 30.984375 9.871094 30.984375 9.550781 L 30.984375 6.933594 C 30.984375 6.609375 31.242188 6.347656 31.5625 6.347656 Z M 31.5625 6.347656 "/>
<path style=" stroke:none;fill-rule:nonzero;fill:rgb(97.647059%,65.882353%,14.901961%);fill-opacity:1;" d="M 17.707031 12.023438 L 20.289062 12.023438 C 20.609375 12.023438 20.867188 12.285156 20.867188 12.609375 L 20.867188 15.222656 C 20.867188 15.546875 20.609375 15.808594 20.289062 15.808594 L 17.707031 15.808594 C 17.386719 15.808594 17.128906 15.546875 17.128906 15.222656 L 17.128906 12.609375 C 17.128906 12.285156 17.386719 12.023438 17.707031 12.023438 Z M 17.707031 12.023438 "/>
<path style=" stroke:none;fill-rule:nonzero;fill:rgb(90.196078%,90.196078%,90.196078%);fill-opacity:1;" d="M 22.324219 12.023438 L 24.90625 12.023438 C 25.226562 12.023438 25.484375 12.285156 25.484375 12.609375 L 25.484375 15.222656 C 25.484375 15.546875 25.226562 15.808594 24.90625 15.808594 L 22.324219 15.808594 C 22.003906 15.808594 21.746094 15.546875 21.746094 15.222656 L 21.746094 12.609375 C 21.746094 12.285156 22.003906 12.023438 22.324219 12.023438 Z M 22.324219 12.023438 "/>
<path style=" stroke:none;fill-rule:nonzero;fill:rgb(90.196078%,90.196078%,90.196078%);fill-opacity:1;" d="M 26.941406 12.023438 L 29.523438 12.023438 C 29.84375 12.023438 30.101562 12.285156 30.101562 12.609375 L 30.101562 15.222656 C 30.101562 15.546875 29.84375 15.808594 29.523438 15.808594 L 26.941406 15.808594 C 26.621094 15.808594 26.363281 15.546875 26.363281 15.222656 L 26.363281 12.609375 C 26.363281 12.285156 26.621094 12.023438 26.941406 12.023438 Z M 26.941406 12.023438 "/>
<path style=" stroke:none;fill-rule:nonzero;fill:rgb(90.196078%,90.196078%,90.196078%);fill-opacity:1;" d="M 31.554688 12.023438 L 34.140625 12.023438 C 34.460938 12.023438 34.71875 12.285156 34.71875 12.609375 L 34.71875 15.222656 C 34.71875 15.546875 34.460938 15.808594 34.140625 15.808594 L 31.554688 15.808594 C 31.238281 15.808594 30.976562 15.546875 30.976562 15.222656 L 30.976562 12.609375 C 30.976562 12.285156 31.238281 12.023438 31.554688 12.023438 Z M 31.554688 12.023438 "/>
<path style=" stroke:none;fill-rule:nonzero;fill:rgb(90.196078%,90.196078%,90.196078%);fill-opacity:1;" d="M 17.707031 17.707031 L 20.292969 17.707031 C 20.613281 17.707031 20.871094 17.96875 20.871094 18.289062 L 20.871094 20.90625 C 20.871094 21.230469 20.613281 21.492188 20.292969 21.492188 L 17.707031 21.492188 C 17.386719 21.492188 17.128906 21.230469 17.128906 20.90625 L 17.128906 18.289062 C 17.128906 17.96875 17.386719 17.707031 17.707031 17.707031 Z M 17.707031 17.707031 "/>
<path style=" stroke:none;fill-rule:nonzero;fill:rgb(90.196078%,90.196078%,90.196078%);fill-opacity:1;" d="M 22.324219 17.707031 L 24.910156 17.707031 C 25.230469 17.707031 25.488281 17.96875 25.488281 18.289062 L 25.488281 20.90625 C 25.488281 21.230469 25.230469 21.492188 24.910156 21.492188 L 22.324219 21.492188 C 22.007812 21.492188 21.746094 21.230469 21.746094 20.90625 L 21.746094 18.289062 C 21.746094 17.96875 22.007812 17.707031 22.324219 17.707031 Z M 22.324219 17.707031 "/>
<path style=" stroke:none;fill-rule:nonzero;fill:rgb(90.196078%,90.196078%,90.196078%);fill-opacity:1;" d="M 26.945312 17.707031 L 29.527344 17.707031 C 29.847656 17.707031 30.105469 17.96875 30.105469 18.289062 L 30.105469 20.90625 C 30.105469 21.230469 29.847656 21.492188 29.527344 21.492188 L 26.945312 21.492188 C 26.625 21.492188 26.367188 21.230469 26.367188 20.90625 L 26.367188 18.289062 C 26.367188 17.96875 26.625 17.707031 26.945312 17.707031 Z M 26.945312 17.707031 "/>
<path style=" stroke:none;fill-rule:nonzero;fill:rgb(90.196078%,90.196078%,90.196078%);fill-opacity:1;" d="M 31.5625 17.707031 L 34.144531 17.707031 C 34.464844 17.707031 34.726562 17.96875 34.726562 18.289062 L 34.726562 20.90625 C 34.726562 21.230469 34.464844 21.492188 34.144531 21.492188 L 31.5625 21.492188 C 31.242188 21.492188 30.984375 21.230469 30.984375 20.90625 L 30.984375 18.289062 C 30.984375 17.96875 31.242188 17.707031 31.5625 17.707031 Z M 31.5625 17.707031 "/>
<path style=" stroke:none;fill-rule:nonzero;fill:rgb(90.196078%,90.196078%,90.196078%);fill-opacity:1;" d="M 17.707031 23.382812 L 20.292969 23.382812 C 20.613281 23.382812 20.871094 23.644531 20.871094 23.96875 L 20.871094 26.582031 C 20.871094 26.90625 20.613281 27.167969 20.292969 27.167969 L 17.707031 27.167969 C 17.386719 27.167969 17.128906 26.90625 17.128906 26.582031 L 17.128906 23.96875 C 17.128906 23.644531 17.386719 23.382812 17.707031 23.382812 Z M 17.707031 23.382812 "/>
<path style=" stroke:none;fill-rule:nonzero;fill:rgb(90.196078%,90.196078%,90.196078%);fill-opacity:1;" d="M 22.324219 23.382812 L 24.910156 23.382812 C 25.230469 23.382812 25.488281 23.644531 25.488281 23.96875 L 25.488281 26.582031 C 25.488281 26.90625 25.230469 27.167969 24.910156 27.167969 L 22.324219 27.167969 C 22.007812 27.167969 21.746094 26.90625 21.746094 26.582031 L 21.746094 23.96875 C 21.746094 23.644531 22.007812 23.382812 22.324219 23.382812 Z M 22.324219 23.382812 "/>
<path style=" stroke:none;fill-rule:nonzero;fill:rgb(90.196078%,90.196078%,90.196078%);fill-opacity:1;" d="M 26.945312 23.382812 L 29.527344 23.382812 C 29.847656 23.382812 30.105469 23.644531 30.105469 23.96875 L 30.105469 26.582031 C 30.105469 26.90625 29.847656 27.167969 29.527344 27.167969 L 26.945312 27.167969 C 26.625 27.167969 26.367188 26.90625 26.367188 26.582031 L 26.367188 23.96875 C 26.367188 23.644531 26.625 23.382812 26.945312 23.382812 Z M 26.945312 23.382812 "/>
<path style=" stroke:none;fill-rule:nonzero;fill:rgb(90.196078%,90.196078%,90.196078%);fill-opacity:1;" d="M 31.5625 23.382812 L 34.144531 23.382812 C 34.464844 23.382812 34.726562 23.644531 34.726562 23.96875 L 34.726562 26.582031 C 34.726562 26.90625 34.464844 27.167969 34.144531 27.167969 L 31.5625 27.167969 C 31.242188 27.167969 30.984375 26.90625 30.984375 26.582031 L 30.984375 23.96875 C 30.984375 23.644531 31.242188 23.382812 31.5625 23.382812 Z M 31.5625 23.382812 "/>
<path style=" stroke:none;fill-rule:nonzero;fill:rgb(97.647059%,65.882353%,14.901961%);fill-opacity:1;" d="M 17.429688 32.769531 L 20.15625 32.769531 C 20.476562 32.769531 20.734375 33.035156 20.734375 33.355469 L 20.734375 36.117188 C 20.734375 36.441406 20.476562 36.703125 20.15625 36.703125 L 17.429688 36.703125 C 17.109375 36.703125 16.851562 36.441406 16.851562 36.117188 L 16.851562 33.355469 C 16.851562 33.035156 17.109375 32.769531 17.429688 32.769531 Z M 17.429688 32.769531 "/>
<path style=" stroke:none;fill-rule:nonzero;fill:rgb(97.647059%,65.882353%,14.901961%);fill-opacity:1;" d="M 22.226562 32.769531 L 24.953125 32.769531 C 25.273438 32.769531 25.53125 33.035156 25.53125 33.355469 L 25.53125 36.117188 C 25.53125 36.441406 25.273438 36.703125 24.953125 36.703125 L 22.226562 36.703125 C 21.90625 36.703125 21.644531 36.441406 21.644531 36.117188 L 21.644531 33.355469 C 21.644531 33.035156 21.90625 32.769531 22.226562 32.769531 Z M 22.226562 32.769531 "/>
<path style=" stroke:none;fill-rule:nonzero;fill:rgb(97.647059%,65.882353%,14.901961%);fill-opacity:1;" d="M 27.019531 32.769531 L 29.75 32.769531 C 30.070312 32.769531 30.328125 33.035156 30.328125 33.355469 L 30.328125 36.117188 C 30.328125 36.441406 30.070312 36.703125 29.75 36.703125 L 27.019531 36.703125 C 26.703125 36.703125 26.441406 36.441406 26.441406 36.117188 L 26.441406 33.355469 C 26.441406 33.035156 26.703125 32.769531 27.019531 32.769531 Z M 27.019531 32.769531 "/>
<path style=" stroke:none;fill-rule:nonzero;fill:rgb(97.647059%,65.882353%,14.901961%);fill-opacity:1;" d="M 31.816406 32.769531 L 34.546875 32.769531 C 34.867188 32.769531 35.125 33.035156 35.125 33.355469 L 35.125 36.117188 C 35.125 36.441406 34.867188 36.703125 34.546875 36.703125 L 31.816406 36.703125 C 31.5 36.703125 31.238281 36.441406 31.238281 36.117188 L 31.238281 33.355469 C 31.238281 33.035156 31.5 32.769531 31.816406 32.769531 Z M 31.816406 32.769531 "/>
<path style=" stroke:none;fill-rule:nonzero;fill:rgb(99.215686%,64.705882%,49.019608%);fill-opacity:1;" d="M 16.214844 13.269531 L 16.214844 14.132812 L 15.203125 15.636719 L 16.214844 16.304688 C 16.214844 16.304688 16.667969 14.546875 16.910156 14.339844 C 16.910156 14.339844 17.292969 14.0625 17.5 13.683594 C 17.707031 13.304688 17.605469 11.996094 16.597656 13.167969 L 16.597656 13.304688 Z M 16.214844 13.269531 "/>
<path style=" stroke:none;fill-rule:nonzero;fill:rgb(99.215686%,64.705882%,49.019608%);fill-opacity:1;" d="M 8.3125 14.824219 L 8.714844 14.011719 C 8.738281 13.960938 8.785156 13.929688 8.839844 13.925781 L 10.363281 13.847656 C 10.414062 13.84375 10.464844 13.867188 10.492188 13.910156 C 10.523438 13.953125 10.53125 14.003906 10.511719 14.054688 L 10.117188 15.082031 C 10.09375 15.144531 10.03125 15.183594 9.964844 15.179688 L 8.433594 15.039062 C 8.382812 15.035156 8.339844 15.007812 8.316406 14.964844 C 8.292969 14.921875 8.289062 14.867188 8.3125 14.824219 Z M 8.3125 14.824219 "/>
<path style=" stroke:none;fill-rule:nonzero;fill:rgb(92.941176%,93.333333%,97.647059%);fill-opacity:1;" d="M 8.425781 14.476562 L 8.164062 15.242188 L 10.828125 15.148438 L 9.804688 14.527344 Z M 8.425781 14.476562 "/>
<path style=" stroke:none;fill-rule:nonzero;fill:rgb(24.705882%,23.921569%,33.72549%);fill-opacity:1;" d="M 7.359375 22.878906 C 7.46875 23.410156 7.40625 23.960938 7.179688 24.457031 C 6.804688 25.25 6.804688 26.078125 7.28125 27.042969 L 7.417969 32.039062 C 7.417969 32.039062 7.589844 34.382812 7.417969 34.867188 C 7.25 35.351562 7.488281 37.660156 7.488281 37.660156 L 9.394531 37.660156 L 9.394531 36.109375 L 10.042969 31.523438 L 10.042969 29.179688 L 11.203125 31.625 L 9.875 37.28125 L 11.613281 38.003906 L 13.792969 31.660156 C 13.792969 31.660156 13.417969 26.664062 12.054688 24.9375 L 11.796875 23.058594 Z M 7.359375 22.878906 "/>
<path style=" stroke:none;fill-rule:nonzero;fill:rgb(24.705882%,23.921569%,33.72549%);fill-opacity:1;" d="M 7.453125 38.824219 L 7.453125 37.546875 L 9.394531 37.546875 C 9.394531 37.546875 9.53125 38.066406 10.417969 38.167969 C 11.304688 38.273438 10.007812 38.894531 10.007812 38.894531 Z M 7.453125 38.824219 "/>
<path style=" stroke:none;fill-rule:nonzero;fill:rgb(24.705882%,23.921569%,33.72549%);fill-opacity:1;" d="M 9.605469 38.253906 L 9.945312 37.023438 L 11.625 37.5625 C 11.625 37.5625 11.808594 38.085938 12.636719 38.425781 C 13.199219 38.65625 12.585938 38.921875 12.585938 38.921875 L 12.363281 38.980469 Z M 9.605469 38.253906 "/>
<use xlink:href="#surface5" mask="url(#mask0)"/>
<path style=" stroke:none;fill-rule:nonzero;fill:rgb(97.647059%,65.882353%,14.901961%);fill-opacity:1;" d="M 8.253906 14.957031 L 8.078125 15.078125 C 6.984375 15.828125 6.429688 17.160156 6.667969 18.476562 C 6.667969 18.476562 7.65625 20.433594 7.351562 22.390625 C 7.042969 24.347656 8.03125 24.042969 8.03125 24.042969 L 11.933594 23.921875 L 12.222656 17.988281 C 12.222656 17.988281 14.574219 18.324219 15.632812 17.496094 L 16.484375 16.179688 L 15.1875 15.277344 L 14.746094 15.917969 C 14.746094 15.917969 13.359375 15.621094 12.597656 15.308594 C 12.242188 15.160156 11.863281 15.078125 11.480469 15.066406 Z M 8.253906 14.957031 "/>
<use xlink:href="#surface8" mask="url(#mask1)"/>
<use xlink:href="#surface11" mask="url(#mask2)"/>
<use xlink:href="#surface14" mask="url(#mask3)"/>
<path style=" stroke:none;fill-rule:nonzero;fill:rgb(99.215686%,64.705882%,49.019608%);fill-opacity:1;" d="M 11.917969 12.402344 C 11.917969 13.511719 11.03125 14.414062 9.933594 14.414062 C 8.835938 14.414062 7.945312 13.511719 7.945312 12.402344 C 7.945312 11.292969 8.835938 10.390625 9.933594 10.390625 C 11.03125 10.390625 11.917969 11.292969 11.917969 12.402344 Z M 11.917969 12.402344 "/>
<use xlink:href="#surface17" mask="url(#mask4)"/>
<path style=" stroke:none;fill-rule:nonzero;fill:rgb(44.705882%,20.784314%,10.980392%);fill-opacity:1;" d="M 11.664062 11.15625 C 11.664062 11.15625 11.875 11.222656 11.886719 11.921875 L 11.585938 11.902344 C 11.585938 11.902344 10.890625 13.78125 10.964844 13.535156 C 11.234375 12.632812 10.695312 12.800781 10.570312 12.96875 C 10.449219 13.136719 10.59375 13.578125 10.59375 13.578125 C 10.59375 13.578125 10.984375 14.308594 8.914062 14.140625 C 8.914062 14.140625 7.550781 13.847656 7.695312 11.984375 C 7.707031 11.796875 7.40625 11.3125 8.316406 11.0625 C 8.371094 10.527344 8.753906 10.085938 9.273438 9.960938 C 9.625 9.871094 9.988281 9.839844 10.351562 9.867188 C 11.050781 9.925781 11.664062 10.445312 11.664062 11.15625 Z M 11.664062 11.15625 "/>
<path style="fill:none;stroke-width:2;stroke-linecap:butt;stroke-linejoin:miter;stroke:rgb(81.568627%,80.392157%,88.235294%);stroke-opacity:1;stroke-miterlimit:10;" d="M 987.059187 737.565064 C 987.059187 737.565064 971.311062 684.069471 990.038562 644.666426 C 997.983562 628.190064 1000.395437 609.610337 996.9195 591.661619 C 995.146062 583.178045 992.66325 574.834696 989.400125 566.771795 " transform="matrix(0.0550661,0,0,0.0557143,-52.302698,-2.264786)"/>
<path style=" stroke:none;fill-rule:nonzero;fill:rgb(90.196078%,90.196078%,90.196078%);fill-opacity:1;" d="M 2.820312 27.925781 C 2.820312 28.292969 2.164062 29.351562 2.164062 29.351562 C 2.164062 29.351562 1.511719 28.292969 1.511719 27.925781 C 1.511719 27.558594 1.804688 27.265625 2.164062 27.265625 C 2.527344 27.265625 2.820312 27.558594 2.820312 27.925781 Z M 2.820312 27.925781 "/>
<path style=" stroke:none;fill-rule:nonzero;fill:rgb(90.196078%,90.196078%,90.196078%);fill-opacity:1;" d="M 3.953125 29.949219 C 3.757812 30.253906 2.640625 30.785156 2.640625 30.785156 C 2.640625 30.785156 2.660156 29.535156 2.855469 29.230469 C 3.050781 28.921875 3.457031 28.835938 3.761719 29.035156 C 4.0625 29.234375 4.148438 29.640625 3.953125 29.949219 Z M 3.953125 29.949219 "/>
<path style=" stroke:none;fill-rule:nonzero;fill:rgb(90.196078%,90.196078%,90.196078%);fill-opacity:1;" d="M 3.851562 33.40625 C 3.53125 33.574219 2.300781 33.457031 2.300781 33.457031 C 2.300781 33.457031 2.941406 32.390625 3.261719 32.226562 C 3.585938 32.0625 3.976562 32.191406 4.140625 32.519531 C 4.304688 32.84375 4.175781 33.242188 3.851562 33.40625 Z M 3.851562 33.40625 "/>
<path style=" stroke:none;fill-rule:nonzero;fill:rgb(90.196078%,90.196078%,90.196078%);fill-opacity:1;" d="M 3.234375 36.015625 C 2.941406 36.234375 1.710938 36.332031 1.710938 36.332031 C 1.710938 36.332031 2.164062 35.167969 2.457031 34.953125 C 2.746094 34.734375 3.15625 34.796875 3.371094 35.089844 C 3.585938 35.382812 3.523438 35.796875 3.234375 36.015625 Z M 3.234375 36.015625 "/>
<path style=" stroke:none;fill-rule:nonzero;fill:rgb(90.196078%,90.196078%,90.196078%);fill-opacity:1;" d="M 1.210938 30.855469 C 1.46875 31.113281 2.675781 31.375 2.675781 31.375 C 2.675781 31.375 2.382812 30.160156 2.121094 29.90625 C 1.863281 29.667969 1.460938 29.679688 1.214844 29.9375 C 0.96875 30.191406 0.96875 30.597656 1.210938 30.855469 Z M 1.210938 30.855469 "/>
<path style=" stroke:none;fill-rule:nonzero;fill:rgb(90.196078%,90.196078%,90.196078%);fill-opacity:1;" d="M 0.527344 33.917969 C 0.847656 34.082031 2.078125 33.96875 2.078125 33.96875 C 2.078125 33.96875 1.4375 32.898438 1.117188 32.734375 C 0.792969 32.570312 0.398438 32.703125 0.238281 33.027344 C 0.0742188 33.355469 0.203125 33.75 0.527344 33.917969 Z M 0.527344 33.917969 "/>
<path style=" stroke:none;fill-rule:nonzero;fill:rgb(90.196078%,90.196078%,90.196078%);fill-opacity:1;" d="M 0.265625 36.984375 C 0.554688 37.199219 1.785156 37.296875 1.785156 37.296875 C 1.785156 37.296875 1.332031 36.136719 1.042969 35.917969 C 0.753906 35.703125 0.34375 35.765625 0.128906 36.058594 C -0.0859375 36.351562 -0.0234375 36.765625 0.265625 36.984375 Z M 0.265625 36.984375 "/>
<path style=" stroke:none;fill-rule:nonzero;fill:rgb(18.431373%,18.039216%,25.490196%);fill-opacity:1;" d="M 0.00390625 38.851562 L 49.980469 38.851562 L 49.980469 38.941406 L 0.00390625 38.941406 Z M 0.00390625 38.851562 "/>
</g>
</svg>
